<mxfile host="app.diagrams.net" modified="2023-09-04T20:04:52.343Z" agent="Mozilla/5.0 (X11; Ubuntu; Linux x86_64; rv:109.0) Gecko/20100101 Firefox/115.0" version="21.1.5" etag="qACbbdAx4OIN1xZ3fiv9" type="github">
  <diagram name="Page-1" id="7CXW07GMJ6JMD9wGRYet">
    <mxGraphModel>
      <root>
        <mxCell id="0" />
        <mxCell id="1" parent="0" />
      </root>
    </mxGraphModel>
  </diagram>
</mxfile>
